# xmcd
#
# Track frame offsets:
#       225
#       17714
#       40801
#       57960
#       75916
#       97903
#       113708
#       129406
#       145204
#       159316
#       181895
#
# Disc length: 2612 seconds
#
# Revision: 0
# Processed by: cddbd v1.5.1PL2 Copyright (c) Steve Scherf et al.
# Submitted via: CD-DA_X-Tractor v0.24
#
DISCID=7d0a310b
DTITLE=Zydeco Patrol - The Fine Art of Zydeco
DYEAR=1900
DGENRE=Zydeco
TTITLE0=Toot-Toot
TTITLE1=Hot Tamale
TTITLE2=Jolie Blonde
TTITLE3=Jambalaya
TTITLE4=Rock Me Baby
TTITLE5=Hey Tite File
TTITLE6=Wine Wine Wine
TTITLE7=You Gonna Look Like a Monkey
TTITLE8=Boil Them Crawfish Down
TTITLE9=Crosscut Saw
TTITLE10=Joe Peat
EXTD=
EXTT0=
EXTT1=
EXTT2=
EXTT3=
EXTT4=
EXTT5=
EXTT6=
EXTT7=
EXTT8=
EXTT9=
EXTT10=
PLAYORDER=
